<?xml version="1.0" encoding="utf-8"?>
<!-- Generator: Adobe Illustrator 14.0.0, SVG Export Plug-In . SVG Version: 6.00 Build 43363)  -->
<!DOCTYPE svg PUBLIC "-//W3C//DTD SVG 1.1//EN" "http://www.w3.org/Graphics/SVG/1.1/DTD/svg11.dtd">
<svg version="1.1" id="Layer_1" xmlns="http://www.w3.org/2000/svg" xmlns:xlink="http://www.w3.org/1999/xlink" x="0px" y="0px"
	 width="612px" height="792px" viewBox="0 0 612 792" enable-background="new 0 0 612 792" xml:space="preserve">
<g>
	<polygon fill-rule="evenodd" clip-rule="evenodd" fill="#FFFFFF" points="209,300 401.756,300 401.756,492.756 209,492.756 
		209,300 	"/>
	<path d="M305.214,374.779c2.463,0,3.45,0.493,3.45,0.493l1.478-6.241c0,0,1.15,4.763,1.643,9.034
		c0.493,4.271,8.048,1.479,14.454,0.164c6.405-1.314,7.72-11.662,7.72-11.662h59.294c0,0-35.807,10.841-26.772,34.656
		c0,0-52.889-8.048-61.101,24.967h-0.001c-8.212-33.015-61.101-24.967-61.101-24.967c9.034-23.815-26.772-34.656-26.772-34.656
		h59.294c0,0,1.314,10.348,7.719,11.662c6.406,1.314,13.962,4.106,14.454-0.164c0.493-4.271,1.643-9.034,1.643-9.034l1.479,6.241
		c0,0,0.985-0.493,3.449-0.493H305.214L305.214,374.779z"/>
</g>
</svg>
