<?xml version="1.0" encoding="iso-8859-1"?>
<!-- Generator: Adobe Illustrator 16.0.0, SVG Export Plug-In . SVG Version: 6.00 Build 0)  -->
<!DOCTYPE svg PUBLIC "-//W3C//DTD SVG 1.1//EN" "http://www.w3.org/Graphics/SVG/1.1/DTD/svg11.dtd">
<svg version="1.1" id="Capa_1" xmlns="http://www.w3.org/2000/svg" xmlns:xlink="http://www.w3.org/1999/xlink" x="0px" y="0px"
	 width="66.137px" height="66.137px" viewBox="0 0 66.137 66.137" style="enable-background:new 0 0 66.137 66.137;"
	 xml:space="preserve">
<g>
	<g>
		<path d="M33.066,66.136C14.833,66.136,0,51.302,0,33.069C0,14.835,14.833,0.001,33.066,0.001
			c18.235,0,33.071,14.834,33.071,33.068C66.137,51.302,51.302,66.136,33.066,66.136z M33.066,4.001C17.039,4.001,4,17.041,4,33.069
			s13.039,29.067,29.066,29.067c16.03,0,29.071-13.04,29.071-29.067S49.096,4.001,33.066,4.001z"/>
		<polygon points="33.067,16.697 38.82,27.248 48.967,28.248 41.143,36.388 42.895,46.938 33.067,41.799 23.241,46.938 
			24.995,36.388 17.169,28.248 27.314,27.248 		"/>
	</g>
</g>
<g>
</g>
<g>
</g>
<g>
</g>
<g>
</g>
<g>
</g>
<g>
</g>
<g>
</g>
<g>
</g>
<g>
</g>
<g>
</g>
<g>
</g>
<g>
</g>
<g>
</g>
<g>
</g>
<g>
</g>
</svg>
