<?xml version="1.0" encoding="iso-8859-1"?>
<!-- Generator: Adobe Illustrator 16.0.0, SVG Export Plug-In . SVG Version: 6.00 Build 0)  -->
<!DOCTYPE svg PUBLIC "-//W3C//DTD SVG 1.1//EN" "http://www.w3.org/Graphics/SVG/1.1/DTD/svg11.dtd">
<svg version="1.1" id="Capa_1" xmlns="http://www.w3.org/2000/svg" xmlns:xlink="http://www.w3.org/1999/xlink" x="0px" y="0px"
	 width="48.384px" height="48.384px" viewBox="0 0 48.384 48.384" style="enable-background:new 0 0 48.384 48.384;"
	 xml:space="preserve">
<g>
	<path d="M44.384,24.18c-0.002,0.561-0.021,1.117-0.062,1.674c-0.02,0.276-0.047,0.552-0.076,0.826
		c-0.016,0.137-0.032,0.272-0.051,0.409c0.08-0.614-0.008,0.021-0.026,0.146c-0.177,1.111-0.449,2.207-0.794,3.277
		c-0.162,0.508-0.35,1.008-0.549,1.502c-0.176,0.436,0.182-0.42-0.004,0.01c-0.053,0.121-0.106,0.242-0.162,0.362
		c-0.127,0.281-0.262,0.558-0.401,0.833c-0.492,0.979-1.066,1.913-1.697,2.807c-0.152,0.216-0.311,0.426-0.469,0.634
		c0.366-0.48-0.165,0.194-0.259,0.311c-0.361,0.437-0.742,0.854-1.137,1.262c-0.362,0.377-0.741,0.736-1.131,1.086
		c-0.193,0.177-0.393,0.346-0.594,0.514c-0.101,0.084-0.201,0.166-0.304,0.249c-0.067,0.055-0.137,0.106-0.205,0.162
		c0.232-0.181,0.267-0.203,0.095-0.073c-0.869,0.663-1.795,1.253-2.751,1.78c-0.464,0.254-0.938,0.487-1.415,0.709
		c-0.121,0.055-0.242,0.106-0.363,0.159c-0.428,0.188,0.422-0.172-0.012,0.007c-0.285,0.116-0.576,0.227-0.869,0.332
		c-1.055,0.382-2.141,0.673-3.238,0.89c-0.268,0.054-0.535,0.099-0.805,0.142c-0.115,0.02-0.595,0.084-0.012,0.006
		c-0.137,0.021-0.273,0.035-0.408,0.052c-0.6,0.067-1.199,0.106-1.801,0.129c-1.161,0.039-2.324-0.021-3.477-0.161
		c-0.481-0.061,0.467,0.066-0.012-0.003c-0.135-0.021-0.27-0.042-0.404-0.064c-0.268-0.045-0.535-0.098-0.802-0.149
		c-0.572-0.117-1.14-0.263-1.701-0.424c-0.514-0.147-1.02-0.319-1.522-0.505c-0.249-0.092-0.496-0.189-0.742-0.293
		c0.525,0.218,0.094,0.039-0.009-0.006c-0.162-0.071-0.322-0.146-0.481-0.221c-0.993-0.465-1.947-1.013-2.86-1.618
		c-0.219-0.146-0.433-0.296-0.646-0.448c-0.12-0.086-0.804-0.607-0.327-0.236c-0.447-0.35-0.877-0.719-1.296-1.1
		c-0.805-0.732-1.549-1.53-2.238-2.375c-0.083-0.102-0.164-0.203-0.245-0.307c0.347,0.438,0.061,0.078-0.006-0.011
		c-0.157-0.209-0.31-0.424-0.459-0.639c-0.325-0.467-0.629-0.946-0.918-1.438c-0.268-0.454-0.515-0.92-0.749-1.394
		c-0.118-0.234-0.23-0.476-0.339-0.717c-0.055-0.121-0.108-0.242-0.159-0.363c0.237,0.551-0.006-0.023-0.051-0.137
		c-0.411-1.037-0.734-2.108-0.984-3.197c-0.121-0.529-0.219-1.065-0.301-1.604c-0.073-0.479,0.059,0.47-0.003-0.012
		c-0.018-0.137-0.032-0.272-0.048-0.41c-0.034-0.319-0.06-0.645-0.081-0.965c-0.075-1.162-0.051-2.33,0.054-3.488
		c0.025-0.274,0.058-0.548,0.093-0.821c-0.081,0.629,0.047-0.262,0.073-0.414c0.099-0.579,0.227-1.151,0.372-1.72
		c0.133-0.52,0.289-1.033,0.46-1.542c0.084-0.253,0.176-0.503,0.269-0.753c0.047-0.125,0.096-0.248,0.145-0.372
		c0.033-0.082,0.066-0.164,0.101-0.246c-0.116,0.273-0.132,0.312-0.046,0.111c0.436-1.008,0.955-1.979,1.535-2.912
		c0.276-0.445,0.573-0.878,0.881-1.302c0.077-0.106,0.155-0.21,0.234-0.315c0.277-0.37-0.278,0.354,0.008-0.009
		c0.188-0.24,0.385-0.473,0.583-0.705c0.71-0.826,1.486-1.594,2.308-2.308c0.197-0.172,0.399-0.338,0.603-0.502
		c0.086-0.07,0.451-0.354,0.007-0.011c0.104-0.08,0.209-0.158,0.313-0.235c0.456-0.34,0.928-0.656,1.408-0.959
		c0.929-0.586,1.906-1.095,2.912-1.535c0.429-0.188-0.423,0.174,0.011-0.004c0.123-0.051,0.247-0.1,0.37-0.147
		c0.249-0.097,0.499-0.187,0.751-0.273c0.549-0.191,1.106-0.355,1.668-0.504c0.524-0.137,1.054-0.25,1.586-0.349
		c0.268-0.049,0.538-0.092,0.809-0.131c-0.582,0.085-0.104,0.014,0.013,0c0.183-0.023,0.365-0.04,0.548-0.058
		c1.159-0.112,2.327-0.123,3.488-0.055c0.276,0.017,0.553,0.04,0.829,0.067c0.152,0.015,1.051,0.133,0.423,0.044
		c0.584,0.082,1.164,0.193,1.739,0.321c1.09,0.242,2.158,0.579,3.197,0.983c0.125,0.048,0.246,0.1,0.368,0.149
		c-0.524-0.216-0.094-0.039,0.011,0.007c0.242,0.106,0.481,0.219,0.721,0.334c0.514,0.249,1.017,0.521,1.51,0.808
		c0.453,0.265,0.896,0.549,1.329,0.844c0.217,0.147,0.429,0.3,0.643,0.456c0.104,0.076,0.209,0.156,0.312,0.235
		c-0.471-0.356,0.017,0.019,0.107,0.092c0.848,0.686,1.637,1.438,2.375,2.239c0.354,0.384,0.69,0.784,1.018,1.193
		c0.287,0.36-0.271-0.359,0.008,0.009c0.079,0.104,0.157,0.21,0.234,0.315c0.181,0.247,0.354,0.498,0.523,0.752
		c0.611,0.909,1.147,1.87,1.618,2.859c0.113,0.239,0.222,0.481,0.325,0.725c-0.242-0.562,0.093,0.245,0.146,0.384
		c0.207,0.541,0.389,1.091,0.551,1.646c0.152,0.518,0.281,1.041,0.396,1.568c0.06,0.266,0.107,0.533,0.155,0.8
		c0.024,0.134,0.046,0.27,0.067,0.404c0.014,0.09,0.025,0.18,0.039,0.271c-0.039-0.306-0.046-0.347-0.018-0.124
		C44.33,22.324,44.381,23.252,44.384,24.18c0.003,1.09,0.907,2,2,2c1.088,0,2.003-0.91,2-2c-0.016-4.758-1.416-9.484-4.073-13.436
		c-2.578-3.836-6.244-6.951-10.507-8.761c-4.612-1.961-9.624-2.472-14.544-1.5C14.69,1.386,10.421,3.755,7.117,7.02
		c-6.831,6.752-9.04,17.421-5.332,26.303c1.854,4.438,4.892,8.178,8.853,10.909c3.909,2.694,8.669,4.104,13.403,4.146
		c9.496,0.088,18.518-5.73,22.284-14.458c1.334-3.088,2.047-6.373,2.058-9.743c0.003-1.09-0.912-2-2-2
		C45.291,22.179,44.387,23.088,44.384,24.18z"/>
	<polygon points="23.934,2.075 28.794,17.036 44.525,17.036 31.799,26.282 36.659,41.243 23.934,31.997 11.207,41.243 
		16.068,26.282 3.342,17.036 19.072,17.036 	"/>
</g>
<g>
</g>
<g>
</g>
<g>
</g>
<g>
</g>
<g>
</g>
<g>
</g>
<g>
</g>
<g>
</g>
<g>
</g>
<g>
</g>
<g>
</g>
<g>
</g>
<g>
</g>
<g>
</g>
<g>
</g>
</svg>
