<?xml version="1.0" encoding="iso-8859-1"?>
<!-- Generator: Adobe Illustrator 16.0.0, SVG Export Plug-In . SVG Version: 6.00 Build 0)  -->
<!DOCTYPE svg PUBLIC "-//W3C//DTD SVG 1.1//EN" "http://www.w3.org/Graphics/SVG/1.1/DTD/svg11.dtd">
<svg version="1.1" id="Capa_1" xmlns="http://www.w3.org/2000/svg" xmlns:xlink="http://www.w3.org/1999/xlink" x="0px" y="0px"
	 width="537.891px" height="537.891px" viewBox="0 0 537.891 537.891" style="enable-background:new 0 0 537.891 537.891;"
	 xml:space="preserve">
<g>
	<path d="M268.945,0C120.368,0,0,120.368,0,268.945s120.368,268.945,268.945,268.945s268.945-120.368,268.945-268.945
		S417.522,0,268.945,0z M437.724,238.465l-83.792,79.01l25.58,91.681c5.14,18.527-3.944,25.58-20.56,15.659l-90.007-54.268
		l-90.126,54.147c-16.496,9.921-26.177,2.869-21.516-15.897l24.743-99.689l-81.162-71.599c-14.463-12.79-10.519-23.07,8.726-23.07
		h98.613l46.856-109.012c7.65-17.691,19.842-17.691,27.253,0.119l45.78,108.893h99.928
		C447.405,214.559,451.709,225.316,437.724,238.465z"/>
</g>
<g>
</g>
<g>
</g>
<g>
</g>
<g>
</g>
<g>
</g>
<g>
</g>
<g>
</g>
<g>
</g>
<g>
</g>
<g>
</g>
<g>
</g>
<g>
</g>
<g>
</g>
<g>
</g>
<g>
</g>
</svg>
