<?xml version="1.0" encoding="UTF-8" standalone="no"?>
<!-- Created with Inkscape (http://www.inkscape.org/) -->

<svg
   xmlns:dc="http://purl.org/dc/elements/1.1/"
   xmlns:cc="http://creativecommons.org/ns#"
   xmlns:rdf="http://www.w3.org/1999/02/22-rdf-syntax-ns#"
   xmlns:svg="http://www.w3.org/2000/svg"
   xmlns="http://www.w3.org/2000/svg"
   xmlns:sodipodi="http://sodipodi.sourceforge.net/DTD/sodipodi-0.dtd"
   xmlns:inkscape="http://www.inkscape.org/namespaces/inkscape"
   width="380.5"
   height="136.5"
   id="svg2"
   version="1.1"
   inkscape:version="0.48.4 r9939"
   sodipodi:docname="WHIO_TV.svg">
  <defs
     id="defs4">
  
    
  
      
    <clipPath
   id="id3">
      <path
   id="path2428"
   d="M 0,792 612,792 612,0 0,0 0,792 z"
   inkscape:connector-curvature="0" />

    </clipPath>

    <clipPath
   id="id2">
      <rect
   id="rect2425"
   y="0"
   x="0"
   height="792"
   width="612" />

    </clipPath>

    <style
   id="style2422"
   type="text/css" />

    <inkscape:perspective
   id="perspective2490"
   inkscape:persp3d-origin="205.4895 : 61.996999 : 1"
   inkscape:vp_z="410.979 : 92.995499 : 1"
   inkscape:vp_y="0 : 1000 : 0"
   inkscape:vp_x="0 : 92.995499 : 1"
   sodipodi:type="inkscape:persp3d" />
</defs>
  <sodipodi:namedview
     id="base"
     pagecolor="#ffffff"
     bordercolor="#666666"
     borderopacity="1.0"
     inkscape:pageopacity="0.0"
     inkscape:pageshadow="2"
     inkscape:zoom="1.979899"
     inkscape:cx="194.19136"
     inkscape:cy="62.430581"
     inkscape:document-units="px"
     inkscape:current-layer="layer1"
     showgrid="false"
     inkscape:window-width="1366"
     inkscape:window-height="706"
     inkscape:window-x="-8"
     inkscape:window-y="-8"
     inkscape:window-maximized="1"
     fit-margin-top="0"
     fit-margin-left="0"
     fit-margin-right="0"
     fit-margin-bottom="0" />
  <metadata
     id="metadata7">
    <rdf:RDF>
      <cc:Work
         rdf:about="">
        <dc:format>image/svg+xml</dc:format>
        <dc:type
           rdf:resource="http://purl.org/dc/dcmitype/StillImage" />
        <dc:title></dc:title>
      </cc:Work>
    </rdf:RDF>
  </metadata>
  <g
     inkscape:label="Layer 1"
     inkscape:groupmode="layer"
     id="layer1"
     transform="translate(-20.637348,-904.5807)">
    <g
       transform="matrix(0.99999999,0,0,-0.99999999,-93.862651,1370.0807)"
       id="g2505"
       clip-path="url(#id3)">
        
        <path
   style="fill:#000000;fill-rule:nonzero;stroke:none"
   id="path2509"
   d="m 452.5,465.5 23,0 0,-109 19.5,0 0,-27.5 -42.5,0 0,136.5 z"
   inkscape:connector-curvature="0" />

        
        
        <path
   style="fill:#000000;fill-rule:nonzero;stroke:none"
   id="path2515"
   d="m 294,400.5 c 16.5,1 15,21.5 15,21.5 -2.5,20 -15,19 -15,19 l 0,-40.5 z m -53,-31.5 -7,41.5 -6,-41.5 13,0 z m -126.5,-39.5 0,136 31,0 11,-57 12.5,57 30,0 0,-122.5 19.5,122.5 30.5,0 19,-122.5 0,122 40.5,0 c 0,0 14,-2.5 21,-22 l -3,22.5 24.5,0 11.5,-70.5 12,70 69,0 0,-25.5 -20.5,0 0,-28 19.5,0 0,-28.5 -19,0 0,-26 20,0 0,-27.5 -44.5,0 0,131 -23,-131 -27.5,0 -14.5,87 c 0,0 -2.5,-24 -16,-35 l 17.5,-52 -24,0 -17,45.5 0,-45.5 -48.5,0 -2.5,13 -18.5,0 -4,-13 -46,0 0,50 -12,-50 -12.5,0 -11,49.5 0,-49 -25,-0.5 z"
   inkscape:connector-curvature="0" />

      </g>
  </g>
</svg>
